<svg width="33" height="31" viewBox="0 0 33 31" fill="none" xmlns="http://www.w3.org/2000/svg">
<path d="M33 14H16C12.6863 14 10 11.3137 10 8C10 4.68629 12.6863 2 16 2H17.5M33 19H7.5C5.29086 19 3.5 17.2091 3.5 15M33 24H12.5C11.1193 24 10 25.1193 10 26.5C10 27.8807 11.1193 29 12.5 29H15.0128M22 2C22 2.55228 21.5523 3 21 3C20.4477 3 20 2.55228 20 2C20 1.44772 20.4477 1 21 1C21.5523 1 22 1.44772 22 2ZM27 29C27 29.5523 26.5523 30 26 30C25.4477 30 25 29.5523 25 29C25 28.4477 25.4477 28 26 28C26.5523 28 27 28.4477 27 29ZM4 21.5C4 22.3284 3.32843 23 2.5 23C1.67157 23 1 22.3284 1 21.5C1 20.6716 1.67157 20 2.5 20C3.32843 20 4 20.6716 4 21.5Z" stroke="#079AD3" stroke-width="2"/>
</svg>
