<svg width="31" height="31" viewBox="0 0 31 31" fill="none" xmlns="http://www.w3.org/2000/svg">
<path d="M13.812 29.4479L14.5622 26.9956C16.0627 27.09 17.4694 26.9956 18.8761 26.524L20.0952 28.7877C20.3766 29.2593 20.9392 29.4479 21.3144 29.1649L23.7526 27.8445C24.2215 27.5615 24.4091 26.9956 24.1278 26.6184L22.9086 24.3547C24.034 23.4116 24.9718 22.2797 25.6282 20.9593L28.0665 21.7138C28.5354 21.9025 29.0981 21.6195 29.1919 21.0536L29.9421 18.4127C30.1297 17.9411 29.8484 17.3752 29.2857 17.2809L26.8474 16.5263C26.9412 15.0173 26.8474 13.6025 26.3785 12.1877L28.6292 10.9616C29.0981 10.6786 29.2857 10.1127 29.0043 9.73545L27.6914 7.28318C27.4101 6.81159 26.8474 6.62296 26.4723 6.90591L24.2215 8.13205C23.2837 7.00023 22.1584 6.05705 20.8455 5.39682L21.5957 2.94456C21.7833 2.47297 21.5019 1.90706 20.9392 1.81274L18.3134 1.0582C17.8445 0.869562 17.2818 1.15252 17.188 1.71842L16.4378 4.17069C14.9373 4.07637 13.5306 4.17069 12.1239 4.64228L10.9048 2.37865C10.6234 1.90706 10.0608 1.71842 9.68564 2.00138L7.24736 3.32183C6.77846 3.22751 6.68467 3.79342 6.87223 4.26501L8.09137 6.52864C6.96601 7.47182 6.02821 8.60363 5.37175 9.92409L2.93347 9.16954C2.46457 8.98091 1.90189 9.26386 1.80811 9.82977L1.05787 12.4707C0.870308 12.9423 1.15165 13.5082 1.71433 13.6025L4.15261 14.357C4.05883 15.8661 4.15261 17.2809 4.62151 18.6957L2.37079 19.9218C1.90189 20.2047 1.71433 20.7707 1.99567 21.1479L3.30859 23.6002C3.58993 24.0718 4.15261 24.2604 4.52773 23.9775L6.77845 22.7513C7.71626 23.8831 8.84161 24.8263 10.1545 25.4865L9.4043 27.9388C9.21674 28.4104 9.49808 28.9763 10.0608 29.0706L12.6866 29.8252C13.1555 30.2024 13.6244 29.9195 13.812 29.4479ZM9.96698 13.7911C10.9048 10.6786 14.0933 8.98091 17.188 9.82977C20.2828 10.7729 21.9708 13.9798 21.1268 17.0923C20.189 20.2047 17.0005 21.9025 13.9057 21.0536C10.811 20.1104 9.02917 16.8093 9.96698 13.7911Z" stroke="#079AD3" stroke-width="2" stroke-miterlimit="10"/>
</svg>
