<svg width="35" height="26" viewBox="0 0 35 26" fill="none" xmlns="http://www.w3.org/2000/svg">
<path d="M34 12C33.1716 12.8284 31.8284 12.8284 31 12C30.1716 11.1716 28.8284 11.1716 28 12C27.1716 12.8284 25.8284 12.8284 25 12C24.1716 11.1716 22.8284 11.1716 22 12C21.1716 12.8284 19.8284 12.8284 19 12C18.1716 11.1716 16.8284 11.1716 16 12C15.1716 12.8284 13.8284 12.8284 13 12C12.1716 11.1716 10.8284 11.1716 10 12C9.17157 12.8284 7.82843 12.8284 7 12C6.17157 11.1716 4.82843 11.1716 4 12C3.17157 12.8284 1.82843 12.8284 1 12M34 16C33.1716 16.8284 31.8284 16.8284 31 16C30.1716 15.1716 28.8284 15.1716 28 16C27.1716 16.8284 25.8284 16.8284 25 16C24.1716 15.1716 22.8284 15.1716 22 16C21.1716 16.8284 19.8284 16.8284 19 16C18.1716 15.1716 16.8284 15.1716 16 16C15.1716 16.8284 13.8284 16.8284 13 16C12.1716 15.1716 10.8284 15.1716 10 16C9.17157 16.8284 7.82843 16.8284 7 16C6.17157 15.1716 4.82843 15.1716 4 16C3.17157 16.8284 1.82843 16.8284 1 16M34 20C33.1716 20.8284 31.8284 20.8284 31 20C30.1716 19.1716 28.8284 19.1716 28 20C27.1716 20.8284 25.8284 20.8284 25 20C24.1716 19.1716 22.8284 19.1716 22 20C21.1716 20.8284 19.8284 20.8284 19 20C18.1716 19.1716 16.8284 19.1716 16 20C15.1716 20.8284 13.8284 20.8284 13 20C12.1716 19.1716 10.8284 19.1716 10 20C9.17157 20.8284 7.82843 20.8284 7 20C6.17157 19.1716 4.82843 19.1716 4 20C3.17157 20.8284 1.82843 20.8284 1 20M34 24C33.1716 24.8284 31.8284 24.8284 31 24C30.1716 23.1716 28.8284 23.1716 28 24C27.1716 24.8284 25.8284 24.8284 25 24C24.1716 23.1716 22.8284 23.1716 22 24C21.1716 24.8284 19.8284 24.8284 19 24C18.1716 23.1716 16.8284 23.1716 16 24C15.1716 24.8284 13.8284 24.8284 13 24C12.1716 23.1716 10.8284 23.1716 10 24C9.17157 24.8284 7.82843 24.8284 7 24C6.17157 23.1716 4.82843 23.1716 4 24C3.17157 24.8284 1.82843 24.8284 1 24" stroke="#2A97DA" stroke-width="2"/>
<path d="M10.5 12.2442C9.86394 11.1423 9.5 9.86367 9.5 8.5C9.5 4.35786 12.8579 1 17 1C21.1421 1 24.5 4.35786 24.5 8.5C24.5 9.86367 24.1361 11.1423 23.5 12.2442" stroke="#079AD3" stroke-width="2"/>
</svg>
